# Blender v3.5.0 OBJ File: '戦車2.blend'
# www.blender.org
mtllib 1.mtl
o 円柱_円柱.002
v -0.153897 0.899091 -0.508819
v -0.153897 1.407037 -2.905058
v -0.125894 0.902134 -0.508174
v -0.125894 1.410080 -2.904413
v -0.098967 0.911145 -0.506264
v -0.098967 1.419091 -2.902503
v -0.074151 0.925778 -0.503162
v -0.074151 1.433725 -2.899401
v -0.052400 0.945472 -0.498987
v -0.052400 1.453418 -2.895226
v -0.034549 0.969468 -0.493901
v -0.034549 1.477415 -2.890140
v -0.021284 0.996845 -0.488097
v -0.021284 1.504792 -2.884336
v -0.013116 1.026551 -0.481800
v -0.013116 1.534498 -2.878039
v -0.010358 1.057445 -0.475252
v -0.010358 1.565391 -2.871490
v -0.013116 1.088338 -0.468703
v -0.013116 1.596285 -2.864942
v -0.021284 1.118044 -0.462406
v -0.021284 1.625991 -2.858645
v -0.034549 1.145422 -0.456603
v -0.034549 1.653368 -2.852841
v -0.052400 1.169418 -0.451516
v -0.052400 1.677365 -2.847755
v -0.074151 1.189111 -0.447341
v -0.074151 1.697058 -2.843580
v -0.098967 1.203745 -0.444239
v -0.098967 1.711691 -2.840478
v -0.125894 1.212756 -0.442329
v -0.125894 1.720703 -2.838568
v -0.153897 1.215799 -0.441684
v -0.153897 1.723745 -2.837923
v -0.181900 1.212756 -0.442329
v -0.181900 1.720703 -2.838568
v -0.208826 1.203745 -0.444239
v -0.208826 1.711691 -2.840478
v -0.233642 1.189111 -0.447341
v -0.233642 1.697058 -2.843580
v -0.255394 1.169418 -0.451516
v -0.255394 1.677365 -2.847755
v -0.273244 1.145422 -0.456603
v -0.273244 1.653368 -2.852841
v -0.286509 1.118044 -0.462406
v -0.286509 1.625991 -2.858645
v -0.294677 1.088338 -0.468703
v -0.294677 1.596285 -2.864942
v -0.297435 1.057445 -0.475252
v -0.297435 1.565391 -2.871490
v -0.294677 1.026551 -0.481800
v -0.294677 1.534498 -2.878039
v -0.286509 0.996845 -0.488097
v -0.286509 1.504792 -2.884336
v -0.273244 0.969468 -0.493901
v -0.273244 1.477415 -2.890140
v -0.255394 0.945472 -0.498987
v -0.255394 1.453418 -2.895226
v -0.233642 0.925778 -0.503162
v -0.233642 1.433725 -2.899401
v -0.208826 0.911145 -0.506264
v -0.208826 1.419091 -2.902503
v -0.181900 0.902134 -0.508174
v -0.181900 1.410080 -2.904413
vt 1.000000 1.000000
vt 0.968750 0.500000
vt 1.000000 0.500000
vt 0.968750 1.000000
vt 0.937500 0.500000
vt 0.937500 1.000000
vt 0.906250 0.500000
vt 0.906250 1.000000
vt 0.875000 0.500000
vt 0.875000 1.000000
vt 0.843750 0.500000
vt 0.843750 1.000000
vt 0.812500 0.500000
vt 0.812500 1.000000
vt 0.781250 0.500000
vt 0.781250 1.000000
vt 0.750000 0.500000
vt 0.750000 1.000000
vt 0.718750 0.500000
vt 0.718750 1.000000
vt 0.687500 0.500000
vt 0.687500 1.000000
vt 0.656250 0.500000
vt 0.656250 1.000000
vt 0.625000 0.500000
vt 0.625000 1.000000
vt 0.593750 0.500000
vt 0.593750 1.000000
vt 0.562500 0.500000
vt 0.562500 1.000000
vt 0.531250 0.500000
vt 0.531250 1.000000
vt 0.500000 0.500000
vt 0.500000 1.000000
vt 0.468750 0.500000
vt 0.468750 1.000000
vt 0.437500 0.500000
vt 0.437500 1.000000
vt 0.406250 0.500000
vt 0.406250 1.000000
vt 0.375000 0.500000
vt 0.375000 1.000000
vt 0.343750 0.500000
vt 0.343750 1.000000
vt 0.312500 0.500000
vt 0.312500 1.000000
vt 0.281250 0.500000
vt 0.281250 1.000000
vt 0.250000 0.500000
vt 0.250000 1.000000
vt 0.218750 0.500000
vt 0.218750 1.000000
vt 0.187500 0.500000
vt 0.187500 1.000000
vt 0.156250 0.500000
vt 0.156250 1.000000
vt 0.125000 0.500000
vt 0.125000 1.000000
vt 0.093750 0.500000
vt 0.093750 1.000000
vt 0.062500 0.500000
vt 0.158156 0.028269
vt 0.471731 0.158156
vt 0.341844 0.471731
vt 0.062500 1.000000
vt 0.031250 0.500000
vt 0.031250 1.000000
vt 0.000000 0.500000
vt 0.796822 0.014612
vt 0.514612 0.203178
vt 0.703178 0.485388
vt 0.296822 0.485388
vt 0.250000 0.490000
vt 0.203178 0.485388
vt 0.158156 0.471731
vt 0.116663 0.449553
vt 0.080294 0.419706
vt 0.050447 0.383337
vt 0.028269 0.341844
vt 0.014612 0.296822
vt 0.010000 0.250000
vt 0.014612 0.203178
vt 0.028269 0.158156
vt 0.050447 0.116663
vt 0.080294 0.080294
vt 0.116663 0.050447
vt 0.203178 0.014612
vt 0.341844 0.028269
vt 0.250000 0.010000
vt 0.296822 0.014612
vt 0.383337 0.050447
vt 0.419706 0.080294
vt 0.449553 0.116663
vt 0.485388 0.203178
vt 0.471731 0.341844
vt 0.490000 0.250000
vt 0.485388 0.296822
vt 0.449553 0.383337
vt 0.419706 0.419706
vt 0.383337 0.449553
vt 0.000000 1.000000
vt 0.750000 0.490000
vt 0.796822 0.485388
vt 0.841844 0.471731
vt 0.883337 0.449553
vt 0.919706 0.419706
vt 0.949553 0.383337
vt 0.971731 0.341844
vt 0.985388 0.296822
vt 0.990000 0.250000
vt 0.985388 0.203178
vt 0.971731 0.158156
vt 0.949553 0.116663
vt 0.919706 0.080294
vt 0.883337 0.050447
vt 0.841844 0.028269
vt 0.750000 0.010000
vt 0.703178 0.014612
vt 0.658156 0.028269
vt 0.616663 0.050447
vt 0.580294 0.080294
vt 0.550447 0.116663
vt 0.528269 0.158156
vt 0.510000 0.250000
vt 0.514612 0.296822
vt 0.528269 0.341844
vt 0.550447 0.383337
vt 0.580294 0.419706
vt 0.616663 0.449553
vt 0.658156 0.471731
vn 0.1104 -0.9723 -0.2061
vn 0.3237 -0.9256 -0.1962
vn 0.5162 -0.8378 -0.1776
vn 0.6792 -0.7180 -0.1522
vn 0.8086 -0.5756 -0.1220
vn 0.9036 -0.4190 -0.0888
vn 0.9657 -0.2541 -0.0539
vn 0.9962 -0.0851 -0.0180
vn 0.9962 0.0851 0.0180
vn 0.9657 0.2541 0.0539
vn 0.9036 0.4190 0.0888
vn 0.8086 0.5756 0.1220
vn 0.6792 0.7180 0.1522
vn 0.5162 0.8378 0.1776
vn 0.3237 0.9256 0.1962
vn 0.1104 0.9723 0.2061
vn -0.1104 0.9723 0.2061
vn -0.3237 0.9256 0.1962
vn -0.5162 0.8378 0.1776
vn -0.6792 0.7180 0.1522
vn -0.8086 0.5756 0.1220
vn -0.9036 0.4190 0.0888
vn -0.9657 0.2541 0.0539
vn -0.9962 0.0851 0.0180
vn -0.9962 -0.0851 -0.0180
vn -0.9657 -0.2541 -0.0539
vn -0.9036 -0.4190 -0.0888
vn -0.8086 -0.5756 -0.1220
vn -0.6792 -0.7180 -0.1522
vn -0.5162 -0.8378 -0.1776
vn 0.0000 0.2074 -0.9783
vn -0.3237 -0.9256 -0.1962
vn -0.1104 -0.9723 -0.2061
vn -0.0000 -0.2074 0.9783
vn -0.5163 0.8378 0.1776
vn 0.0000 0.2073 -0.9783
vn 0.0002 0.2074 -0.9783
vn 0.0001 0.2074 -0.9783
vn -0.0001 0.2074 -0.9783
vn -0.0002 0.2074 -0.9783
vn 0.0000 -0.2073 0.9783
usemtl マテリアル.003
s off
f 2/1/1 3/2/1 1/3/1
f 4/4/2 5/5/2 3/2/2
f 6/6/3 7/7/3 5/5/3
f 8/8/4 9/9/4 7/7/4
f 10/10/5 11/11/5 9/9/5
f 12/12/6 13/13/6 11/11/6
f 14/14/7 15/15/7 13/13/7
f 16/16/8 17/17/8 15/15/8
f 18/18/9 19/19/9 17/17/9
f 20/20/10 21/21/10 19/19/10
f 22/22/11 23/23/11 21/21/11
f 24/24/12 25/25/12 23/23/12
f 26/26/13 27/27/13 25/25/13
f 28/28/14 29/29/14 27/27/14
f 30/30/15 31/31/15 29/29/15
f 32/32/16 33/33/16 31/31/16
f 34/34/17 35/35/17 33/33/17
f 36/36/18 37/37/18 35/35/18
f 38/38/19 39/39/19 37/37/19
f 40/40/20 41/41/20 39/39/20
f 42/42/21 43/43/21 41/41/21
f 44/44/22 45/45/22 43/43/22
f 46/46/23 47/47/23 45/45/23
f 48/48/24 49/49/24 47/47/24
f 50/50/25 51/51/25 49/49/25
f 52/52/26 53/53/26 51/51/26
f 54/54/27 55/55/27 53/53/27
f 56/56/28 57/57/28 55/55/28
f 58/58/29 59/59/29 57/57/29
f 60/60/30 61/61/30 59/59/30
f 38/62/31 22/63/31 6/64/31
f 62/65/32 63/66/32 61/61/32
f 64/67/33 1/68/33 63/66/33
f 31/69/34 47/70/34 63/71/34
f 2/1/1 4/4/1 3/2/1
f 4/4/2 6/6/2 5/5/2
f 6/6/3 8/8/3 7/7/3
f 8/8/4 10/10/4 9/9/4
f 10/10/5 12/12/5 11/11/5
f 12/12/6 14/14/6 13/13/6
f 14/14/7 16/16/7 15/15/7
f 16/16/8 18/18/8 17/17/8
f 18/18/9 20/20/9 19/19/9
f 20/20/10 22/22/10 21/21/10
f 22/22/11 24/24/11 23/23/11
f 24/24/12 26/26/12 25/25/12
f 26/26/13 28/28/13 27/27/13
f 28/28/14 30/30/14 29/29/14
f 30/30/15 32/32/15 31/31/15
f 32/32/16 34/34/16 33/33/16
f 34/34/17 36/36/17 35/35/17
f 36/36/18 38/38/18 37/37/18
f 38/38/35 40/40/35 39/39/35
f 40/40/20 42/42/20 41/41/20
f 42/42/21 44/44/21 43/43/21
f 44/44/22 46/46/22 45/45/22
f 46/46/23 48/48/23 47/47/23
f 48/48/24 50/50/24 49/49/24
f 50/50/25 52/52/25 51/51/25
f 52/52/26 54/54/26 53/53/26
f 54/54/27 56/56/27 55/55/27
f 56/56/28 58/58/28 57/57/28
f 58/58/29 60/60/29 59/59/29
f 60/60/30 62/65/30 61/61/30
f 6/64/36 4/72/36 2/73/36
f 2/73/31 64/74/31 6/64/31
f 64/74/31 62/75/31 6/64/31
f 62/75/31 60/76/31 58/77/31
f 58/77/37 56/78/37 54/79/37
f 54/79/38 52/80/38 50/81/38
f 50/81/31 48/82/31 54/79/31
f 48/82/31 46/83/31 54/79/31
f 46/83/31 44/84/31 42/85/31
f 42/85/31 40/86/31 38/62/31
f 38/62/31 36/87/31 30/88/31
f 36/87/31 34/89/31 30/88/31
f 34/89/36 32/90/36 30/88/36
f 30/88/31 28/91/31 26/92/31
f 26/92/31 24/93/31 22/63/31
f 22/63/31 20/94/31 14/95/31
f 20/94/31 18/96/31 14/95/31
f 18/96/39 16/97/39 14/95/39
f 14/95/40 12/98/40 10/99/40
f 10/99/31 8/100/31 6/64/31
f 62/75/31 58/77/31 6/64/31
f 58/77/31 54/79/31 6/64/31
f 46/83/31 42/85/31 54/79/31
f 42/85/31 38/62/31 54/79/31
f 30/88/31 26/92/31 38/62/31
f 26/92/31 22/63/31 38/62/31
f 14/95/31 10/99/31 22/63/31
f 10/99/31 6/64/31 22/63/31
f 6/64/31 54/79/31 38/62/31
f 62/65/32 64/67/32 63/66/32
f 64/67/33 2/101/33 1/68/33
f 63/71/41 1/102/41 3/103/41
f 3/103/34 5/104/34 7/105/34
f 7/105/34 9/106/34 11/107/34
f 11/107/34 13/108/34 15/109/34
f 15/109/34 17/110/34 19/111/34
f 19/111/34 21/112/34 23/113/34
f 23/113/34 25/114/34 27/115/34
f 27/115/34 29/116/34 31/69/34
f 31/69/34 33/117/34 35/118/34
f 35/118/34 37/119/34 39/120/34
f 39/120/34 41/121/34 43/122/34
f 43/122/34 45/123/34 47/70/34
f 47/70/34 49/124/34 51/125/34
f 51/125/34 53/126/34 55/127/34
f 55/127/34 57/128/34 59/129/34
f 59/129/34 61/130/34 63/71/34
f 63/71/34 3/103/34 15/109/34
f 3/103/34 7/105/34 15/109/34
f 7/105/34 11/107/34 15/109/34
f 15/109/34 19/111/34 31/69/34
f 19/111/34 23/113/34 31/69/34
f 23/113/34 27/115/34 31/69/34
f 31/69/34 35/118/34 47/70/34
f 35/118/34 39/120/34 47/70/34
f 39/120/34 43/122/34 47/70/34
f 47/70/34 51/125/34 63/71/34
f 51/125/34 55/127/34 63/71/34
f 55/127/34 59/129/34 63/71/34
f 63/71/34 15/109/34 31/69/34
